<mxfile host="app.diagrams.net" modified="2021-11-30T20:11:27.789Z" agent="5.0 (Windows NT 10.0; Win64; x64) AppleWebKit/537.36 (KHTML, like Gecko) Chrome/96.0.4664.45 Safari/537.36" etag="JdGfj-mSTHLYxtkYqEK-" version="15.8.8" type="github" pages="3">
  <diagram id="ylqbXuaUV6oWXDg7eSVH" name="Main">
    <mxGraphModel dx="860" dy="1055" grid="1" gridSize="10" guides="1" tooltips="1" connect="1" arrows="1" fold="1" page="1" pageScale="1" pageWidth="850" pageHeight="1100" math="0" shadow="0">
      <root>
        <mxCell id="0" />
        <mxCell id="1" parent="0" />
        <mxCell id="lzFW4fPlHFF12gXWSBgn-47" value="" style="edgeStyle=orthogonalEdgeStyle;rounded=0;orthogonalLoop=1;jettySize=auto;html=1;fontSize=12;" edge="1" parent="1" source="lzFW4fPlHFF12gXWSBgn-2" target="lzFW4fPlHFF12gXWSBgn-23">
          <mxGeometry relative="1" as="geometry" />
        </mxCell>
        <mxCell id="lzFW4fPlHFF12gXWSBgn-2" value="Start" style="ellipse;whiteSpace=wrap;html=1;" vertex="1" parent="1">
          <mxGeometry x="335" y="20" width="90" height="40" as="geometry" />
        </mxCell>
        <mxCell id="lzFW4fPlHFF12gXWSBgn-8" style="edgeStyle=orthogonalEdgeStyle;rounded=0;orthogonalLoop=1;jettySize=auto;html=1;exitX=0.5;exitY=0;exitDx=0;exitDy=0;" edge="1" parent="1">
          <mxGeometry relative="1" as="geometry">
            <mxPoint x="324.9411764705883" y="500" as="targetPoint" />
            <mxPoint x="325" y="500" as="sourcePoint" />
          </mxGeometry>
        </mxCell>
        <mxCell id="lzFW4fPlHFF12gXWSBgn-22" value="END" style="ellipse;whiteSpace=wrap;html=1;" vertex="1" parent="1">
          <mxGeometry x="335" y="800" width="120" height="40" as="geometry" />
        </mxCell>
        <mxCell id="lzFW4fPlHFF12gXWSBgn-48" style="edgeStyle=orthogonalEdgeStyle;rounded=0;orthogonalLoop=1;jettySize=auto;html=1;fontSize=12;" edge="1" parent="1" source="lzFW4fPlHFF12gXWSBgn-23" target="lzFW4fPlHFF12gXWSBgn-24">
          <mxGeometry relative="1" as="geometry" />
        </mxCell>
        <mxCell id="lzFW4fPlHFF12gXWSBgn-23" value="Define Lo Shu Square with 3 parallel arrays" style="rounded=0;whiteSpace=wrap;html=1;" vertex="1" parent="1">
          <mxGeometry x="320" y="100" width="120" height="60" as="geometry" />
        </mxCell>
        <mxCell id="lzFW4fPlHFF12gXWSBgn-49" style="edgeStyle=orthogonalEdgeStyle;rounded=0;orthogonalLoop=1;jettySize=auto;html=1;fontSize=12;" edge="1" parent="1" source="lzFW4fPlHFF12gXWSBgn-24" target="lzFW4fPlHFF12gXWSBgn-27">
          <mxGeometry relative="1" as="geometry" />
        </mxCell>
        <mxCell id="lzFW4fPlHFF12gXWSBgn-24" value="Call fillArray()" style="shape=process;whiteSpace=wrap;html=1;backgroundOutline=1;rounded=0;" vertex="1" parent="1">
          <mxGeometry x="250" y="220" width="120" height="60" as="geometry" />
        </mxCell>
        <mxCell id="lzFW4fPlHFF12gXWSBgn-26" style="edgeStyle=orthogonalEdgeStyle;rounded=0;orthogonalLoop=1;jettySize=auto;html=1;exitX=0.5;exitY=1;exitDx=0;exitDy=0;" edge="1" parent="1" source="lzFW4fPlHFF12gXWSBgn-24" target="lzFW4fPlHFF12gXWSBgn-24">
          <mxGeometry relative="1" as="geometry" />
        </mxCell>
        <mxCell id="lzFW4fPlHFF12gXWSBgn-50" style="edgeStyle=orthogonalEdgeStyle;rounded=0;orthogonalLoop=1;jettySize=auto;html=1;fontSize=12;" edge="1" parent="1" source="lzFW4fPlHFF12gXWSBgn-27" target="lzFW4fPlHFF12gXWSBgn-31">
          <mxGeometry relative="1" as="geometry">
            <Array as="points">
              <mxPoint x="470" y="300" />
              <mxPoint x="310" y="300" />
            </Array>
          </mxGeometry>
        </mxCell>
        <mxCell id="lzFW4fPlHFF12gXWSBgn-27" value="Call showArray()" style="shape=process;whiteSpace=wrap;html=1;backgroundOutline=1;rounded=0;" vertex="1" parent="1">
          <mxGeometry x="410" y="220" width="120" height="60" as="geometry" />
        </mxCell>
        <mxCell id="lzFW4fPlHFF12gXWSBgn-52" style="edgeStyle=orthogonalEdgeStyle;rounded=0;orthogonalLoop=1;jettySize=auto;html=1;fontSize=12;" edge="1" parent="1" source="lzFW4fPlHFF12gXWSBgn-30" target="lzFW4fPlHFF12gXWSBgn-33">
          <mxGeometry relative="1" as="geometry" />
        </mxCell>
        <mxCell id="lzFW4fPlHFF12gXWSBgn-30" value="Call isMagicSquare() and set return value equal to magic" style="shape=process;whiteSpace=wrap;html=1;backgroundOutline=1;rounded=0;" vertex="1" parent="1">
          <mxGeometry x="410" y="330" width="130" height="80" as="geometry" />
        </mxCell>
        <mxCell id="lzFW4fPlHFF12gXWSBgn-51" value="" style="edgeStyle=orthogonalEdgeStyle;rounded=0;orthogonalLoop=1;jettySize=auto;html=1;fontSize=12;" edge="1" parent="1" source="lzFW4fPlHFF12gXWSBgn-31" target="lzFW4fPlHFF12gXWSBgn-30">
          <mxGeometry relative="1" as="geometry" />
        </mxCell>
        <mxCell id="lzFW4fPlHFF12gXWSBgn-31" value="Create boolean value called magic" style="rounded=0;whiteSpace=wrap;html=1;" vertex="1" parent="1">
          <mxGeometry x="250" y="340" width="120" height="60" as="geometry" />
        </mxCell>
        <mxCell id="lzFW4fPlHFF12gXWSBgn-35" value="" style="edgeStyle=orthogonalEdgeStyle;rounded=0;orthogonalLoop=1;jettySize=auto;html=1;" edge="1" parent="1" source="lzFW4fPlHFF12gXWSBgn-33" target="lzFW4fPlHFF12gXWSBgn-34">
          <mxGeometry relative="1" as="geometry" />
        </mxCell>
        <mxCell id="lzFW4fPlHFF12gXWSBgn-39" value="True" style="edgeLabel;html=1;align=center;verticalAlign=middle;resizable=0;points=[];" vertex="1" connectable="0" parent="lzFW4fPlHFF12gXWSBgn-35">
          <mxGeometry x="-0.1667" relative="1" as="geometry">
            <mxPoint x="-10" as="offset" />
          </mxGeometry>
        </mxCell>
        <mxCell id="lzFW4fPlHFF12gXWSBgn-43" style="edgeStyle=orthogonalEdgeStyle;rounded=0;orthogonalLoop=1;jettySize=auto;html=1;fontSize=12;" edge="1" parent="1" source="lzFW4fPlHFF12gXWSBgn-33" target="lzFW4fPlHFF12gXWSBgn-37">
          <mxGeometry relative="1" as="geometry" />
        </mxCell>
        <mxCell id="lzFW4fPlHFF12gXWSBgn-44" value="False" style="edgeLabel;html=1;align=center;verticalAlign=middle;resizable=0;points=[];fontSize=12;" vertex="1" connectable="0" parent="lzFW4fPlHFF12gXWSBgn-43">
          <mxGeometry x="0.2394" y="-1" relative="1" as="geometry">
            <mxPoint x="-15" as="offset" />
          </mxGeometry>
        </mxCell>
        <mxCell id="lzFW4fPlHFF12gXWSBgn-33" value="&lt;font style=&quot;font-size: 12px&quot;&gt;&amp;nbsp;Is magic true?&lt;/font&gt;" style="rhombus;whiteSpace=wrap;html=1;" vertex="1" parent="1">
          <mxGeometry x="335" y="470" width="90" height="80" as="geometry" />
        </mxCell>
        <mxCell id="lzFW4fPlHFF12gXWSBgn-45" style="edgeStyle=orthogonalEdgeStyle;rounded=0;orthogonalLoop=1;jettySize=auto;html=1;fontSize=12;" edge="1" parent="1" source="lzFW4fPlHFF12gXWSBgn-34" target="lzFW4fPlHFF12gXWSBgn-22">
          <mxGeometry relative="1" as="geometry" />
        </mxCell>
        <mxCell id="lzFW4fPlHFF12gXWSBgn-34" value="Print&lt;br&gt;You now have a magic square!" style="shape=parallelogram;perimeter=parallelogramPerimeter;whiteSpace=wrap;html=1;fixedSize=1;" vertex="1" parent="1">
          <mxGeometry x="225" y="670" width="150" height="60" as="geometry" />
        </mxCell>
        <mxCell id="lzFW4fPlHFF12gXWSBgn-46" style="edgeStyle=orthogonalEdgeStyle;rounded=0;orthogonalLoop=1;jettySize=auto;html=1;entryX=0.5;entryY=0;entryDx=0;entryDy=0;fontSize=12;" edge="1" parent="1" source="lzFW4fPlHFF12gXWSBgn-37" target="lzFW4fPlHFF12gXWSBgn-22">
          <mxGeometry relative="1" as="geometry" />
        </mxCell>
        <mxCell id="lzFW4fPlHFF12gXWSBgn-37" value="Print&lt;br&gt;This is not a magic square&amp;nbsp;" style="shape=parallelogram;perimeter=parallelogramPerimeter;whiteSpace=wrap;html=1;fixedSize=1;" vertex="1" parent="1">
          <mxGeometry x="400" y="670" width="135" height="60" as="geometry" />
        </mxCell>
      </root>
    </mxGraphModel>
  </diagram>
  <diagram id="D1SwSXLnBNOCUW_hVxbb" name="IsMagicSquare()">
    <mxGraphModel dx="860" dy="1055" grid="1" gridSize="10" guides="1" tooltips="1" connect="1" arrows="1" fold="1" page="1" pageScale="1" pageWidth="850" pageHeight="1100" math="0" shadow="0">
      <root>
        <mxCell id="RIjCXzfaDxno7XrKcSsd-0" />
        <mxCell id="RIjCXzfaDxno7XrKcSsd-1" parent="RIjCXzfaDxno7XrKcSsd-0" />
        <mxCell id="RIjCXzfaDxno7XrKcSsd-15" value="" style="edgeStyle=orthogonalEdgeStyle;rounded=0;orthogonalLoop=1;jettySize=auto;html=1;fontSize=12;" edge="1" parent="RIjCXzfaDxno7XrKcSsd-1" source="RIjCXzfaDxno7XrKcSsd-4" target="RIjCXzfaDxno7XrKcSsd-14">
          <mxGeometry relative="1" as="geometry" />
        </mxCell>
        <mxCell id="RIjCXzfaDxno7XrKcSsd-4" value="Start isMagicSquare() function" style="ellipse;whiteSpace=wrap;html=1;" vertex="1" parent="RIjCXzfaDxno7XrKcSsd-1">
          <mxGeometry x="320" y="10" width="160" height="50" as="geometry" />
        </mxCell>
        <mxCell id="RIjCXzfaDxno7XrKcSsd-13" value="End function" style="ellipse;whiteSpace=wrap;html=1;" vertex="1" parent="RIjCXzfaDxno7XrKcSsd-1">
          <mxGeometry x="371.01" y="710" width="160" height="50" as="geometry" />
        </mxCell>
        <mxCell id="RIjCXzfaDxno7XrKcSsd-17" value="" style="edgeStyle=orthogonalEdgeStyle;rounded=0;orthogonalLoop=1;jettySize=auto;html=1;fontSize=12;" edge="1" parent="RIjCXzfaDxno7XrKcSsd-1" source="RIjCXzfaDxno7XrKcSsd-14" target="RIjCXzfaDxno7XrKcSsd-16">
          <mxGeometry relative="1" as="geometry" />
        </mxCell>
        <mxCell id="RIjCXzfaDxno7XrKcSsd-14" value="Create bool array of size 5" style="whiteSpace=wrap;html=1;" vertex="1" parent="RIjCXzfaDxno7XrKcSsd-1">
          <mxGeometry x="340" y="100" width="120" height="60" as="geometry" />
        </mxCell>
        <mxCell id="RIjCXzfaDxno7XrKcSsd-22" value="" style="edgeStyle=orthogonalEdgeStyle;rounded=0;orthogonalLoop=1;jettySize=auto;html=1;fontSize=12;" edge="1" parent="RIjCXzfaDxno7XrKcSsd-1" source="RIjCXzfaDxno7XrKcSsd-16" target="RIjCXzfaDxno7XrKcSsd-18">
          <mxGeometry relative="1" as="geometry" />
        </mxCell>
        <mxCell id="RIjCXzfaDxno7XrKcSsd-16" value="set 1st element to checkRange()" style="shape=process;whiteSpace=wrap;html=1;backgroundOutline=1;" vertex="1" parent="RIjCXzfaDxno7XrKcSsd-1">
          <mxGeometry x="40" y="200" width="120" height="60" as="geometry" />
        </mxCell>
        <mxCell id="RIjCXzfaDxno7XrKcSsd-23" value="" style="edgeStyle=orthogonalEdgeStyle;rounded=0;orthogonalLoop=1;jettySize=auto;html=1;fontSize=12;" edge="1" parent="RIjCXzfaDxno7XrKcSsd-1" source="RIjCXzfaDxno7XrKcSsd-18" target="RIjCXzfaDxno7XrKcSsd-20">
          <mxGeometry relative="1" as="geometry" />
        </mxCell>
        <mxCell id="RIjCXzfaDxno7XrKcSsd-18" value="set 2nd element to checkUnique()" style="shape=process;whiteSpace=wrap;html=1;backgroundOutline=1;" vertex="1" parent="RIjCXzfaDxno7XrKcSsd-1">
          <mxGeometry x="200" y="200" width="120" height="60" as="geometry" />
        </mxCell>
        <mxCell id="RIjCXzfaDxno7XrKcSsd-25" value="" style="edgeStyle=orthogonalEdgeStyle;rounded=0;orthogonalLoop=1;jettySize=auto;html=1;fontSize=12;" edge="1" parent="RIjCXzfaDxno7XrKcSsd-1" source="RIjCXzfaDxno7XrKcSsd-19" target="RIjCXzfaDxno7XrKcSsd-21">
          <mxGeometry relative="1" as="geometry" />
        </mxCell>
        <mxCell id="RIjCXzfaDxno7XrKcSsd-19" value="set 4th element to checkColSum()" style="shape=process;whiteSpace=wrap;html=1;backgroundOutline=1;" vertex="1" parent="RIjCXzfaDxno7XrKcSsd-1">
          <mxGeometry x="520" y="200" width="120" height="60" as="geometry" />
        </mxCell>
        <mxCell id="RIjCXzfaDxno7XrKcSsd-24" value="" style="edgeStyle=orthogonalEdgeStyle;rounded=0;orthogonalLoop=1;jettySize=auto;html=1;fontSize=12;" edge="1" parent="RIjCXzfaDxno7XrKcSsd-1" source="RIjCXzfaDxno7XrKcSsd-20" target="RIjCXzfaDxno7XrKcSsd-19">
          <mxGeometry relative="1" as="geometry" />
        </mxCell>
        <mxCell id="RIjCXzfaDxno7XrKcSsd-20" value="set 3rd element to checkRowSum()" style="shape=process;whiteSpace=wrap;html=1;backgroundOutline=1;" vertex="1" parent="RIjCXzfaDxno7XrKcSsd-1">
          <mxGeometry x="360" y="200" width="120" height="60" as="geometry" />
        </mxCell>
        <mxCell id="RIjCXzfaDxno7XrKcSsd-21" value="set 5th element to checkDiagSum()" style="shape=process;whiteSpace=wrap;html=1;backgroundOutline=1;" vertex="1" parent="RIjCXzfaDxno7XrKcSsd-1">
          <mxGeometry x="680" y="200" width="120" height="60" as="geometry" />
        </mxCell>
        <mxCell id="RIjCXzfaDxno7XrKcSsd-26" value="" style="edgeStyle=orthogonalEdgeStyle;rounded=0;orthogonalLoop=1;jettySize=auto;html=1;exitX=0.5;exitY=1;exitDx=0;exitDy=0;" edge="1" parent="RIjCXzfaDxno7XrKcSsd-1" source="RIjCXzfaDxno7XrKcSsd-21" target="RIjCXzfaDxno7XrKcSsd-31">
          <mxGeometry relative="1" as="geometry">
            <mxPoint x="251.01" y="300" as="sourcePoint" />
            <Array as="points">
              <mxPoint x="740" y="310" />
              <mxPoint x="251" y="310" />
            </Array>
          </mxGeometry>
        </mxCell>
        <mxCell id="Roq819OLL7liPsBaPRK9-8" style="edgeStyle=orthogonalEdgeStyle;rounded=0;orthogonalLoop=1;jettySize=auto;html=1;entryX=0;entryY=0.5;entryDx=0;entryDy=0;fontSize=14;" edge="1" parent="RIjCXzfaDxno7XrKcSsd-1" source="RIjCXzfaDxno7XrKcSsd-31" target="Roq819OLL7liPsBaPRK9-5">
          <mxGeometry relative="1" as="geometry" />
        </mxCell>
        <mxCell id="Roq819OLL7liPsBaPRK9-12" value="" style="edgeStyle=orthogonalEdgeStyle;rounded=0;orthogonalLoop=1;jettySize=auto;html=1;fontSize=13;" edge="1" parent="RIjCXzfaDxno7XrKcSsd-1" source="RIjCXzfaDxno7XrKcSsd-31" target="Roq819OLL7liPsBaPRK9-11">
          <mxGeometry relative="1" as="geometry" />
        </mxCell>
        <mxCell id="RIjCXzfaDxno7XrKcSsd-31" value="&lt;font style=&quot;font-size: 14px&quot;&gt;i&amp;nbsp;&amp;lt; 5?&lt;/font&gt;" style="rhombus;whiteSpace=wrap;html=1;" vertex="1" parent="RIjCXzfaDxno7XrKcSsd-1">
          <mxGeometry x="206.01" y="490" width="90" height="80" as="geometry" />
        </mxCell>
        <mxCell id="Roq819OLL7liPsBaPRK9-0" style="edgeStyle=orthogonalEdgeStyle;rounded=0;orthogonalLoop=1;jettySize=auto;html=1;exitX=0.5;exitY=0;exitDx=0;exitDy=0;" edge="1" parent="RIjCXzfaDxno7XrKcSsd-1">
          <mxGeometry relative="1" as="geometry">
            <mxPoint x="647.9811764705883" y="430" as="targetPoint" />
            <mxPoint x="648.04" y="430" as="sourcePoint" />
          </mxGeometry>
        </mxCell>
        <mxCell id="Roq819OLL7liPsBaPRK9-15" value="" style="edgeStyle=orthogonalEdgeStyle;rounded=0;orthogonalLoop=1;jettySize=auto;html=1;fontSize=13;" edge="1" parent="RIjCXzfaDxno7XrKcSsd-1" source="Roq819OLL7liPsBaPRK9-5" target="Roq819OLL7liPsBaPRK9-14">
          <mxGeometry relative="1" as="geometry" />
        </mxCell>
        <mxCell id="Roq819OLL7liPsBaPRK9-5" value="&lt;font style=&quot;font-size: 13px&quot;&gt;&lt;font style=&quot;font-size: 13px&quot;&gt;&amp;nbsp;&lt;/font&gt;&lt;font style=&quot;font-size: 13px&quot;&gt;Is bool arr &lt;br&gt;at i false?&lt;/font&gt;&lt;/font&gt;" style="rhombus;whiteSpace=wrap;html=1;" vertex="1" parent="RIjCXzfaDxno7XrKcSsd-1">
          <mxGeometry x="369.53" y="490" width="102.97" height="80" as="geometry" />
        </mxCell>
        <mxCell id="Roq819OLL7liPsBaPRK9-13" value="" style="edgeStyle=orthogonalEdgeStyle;rounded=0;orthogonalLoop=1;jettySize=auto;html=1;fontSize=13;exitX=1;exitY=0.5;exitDx=0;exitDy=0;" edge="1" parent="RIjCXzfaDxno7XrKcSsd-1" source="Roq819OLL7liPsBaPRK9-11">
          <mxGeometry relative="1" as="geometry">
            <mxPoint x="441.01" y="710" as="targetPoint" />
            <Array as="points">
              <mxPoint x="340" y="720" />
              <mxPoint x="340" y="640" />
              <mxPoint x="441" y="640" />
            </Array>
          </mxGeometry>
        </mxCell>
        <mxCell id="Roq819OLL7liPsBaPRK9-11" value="return true" style="rounded=0;whiteSpace=wrap;html=1;fontSize=13;" vertex="1" parent="RIjCXzfaDxno7XrKcSsd-1">
          <mxGeometry x="191.01" y="690" width="120" height="60" as="geometry" />
        </mxCell>
        <mxCell id="Roq819OLL7liPsBaPRK9-17" style="edgeStyle=orthogonalEdgeStyle;rounded=0;orthogonalLoop=1;jettySize=auto;html=1;fontSize=13;" edge="1" parent="RIjCXzfaDxno7XrKcSsd-1" source="Roq819OLL7liPsBaPRK9-14">
          <mxGeometry relative="1" as="geometry">
            <mxPoint x="441.01" y="710" as="targetPoint" />
            <Array as="points">
              <mxPoint x="521.01" y="410" />
              <mxPoint x="521.01" y="640" />
              <mxPoint x="441.01" y="640" />
            </Array>
          </mxGeometry>
        </mxCell>
        <mxCell id="Roq819OLL7liPsBaPRK9-18" style="edgeStyle=orthogonalEdgeStyle;rounded=0;orthogonalLoop=1;jettySize=auto;html=1;fontSize=13;" edge="1" parent="RIjCXzfaDxno7XrKcSsd-1" source="Roq819OLL7liPsBaPRK9-14">
          <mxGeometry relative="1" as="geometry">
            <mxPoint x="251.01" y="350" as="targetPoint" />
            <Array as="points">
              <mxPoint x="421.01" y="350" />
            </Array>
          </mxGeometry>
        </mxCell>
        <mxCell id="Roq819OLL7liPsBaPRK9-14" value="return false" style="rounded=0;whiteSpace=wrap;html=1;fontSize=13;" vertex="1" parent="RIjCXzfaDxno7XrKcSsd-1">
          <mxGeometry x="361.01" y="380" width="120" height="60" as="geometry" />
        </mxCell>
      </root>
    </mxGraphModel>
  </diagram>
  <diagram id="RQ0Ik9xMksjMYC96cWEa" name="checkRange()">
    <mxGraphModel dx="1012" dy="1241" grid="1" gridSize="10" guides="1" tooltips="1" connect="1" arrows="1" fold="1" page="1" pageScale="1" pageWidth="850" pageHeight="1100" math="0" shadow="0">
      <root>
        <mxCell id="bvs4TOfVJk0hcvko50bC-0" />
        <mxCell id="bvs4TOfVJk0hcvko50bC-1" parent="bvs4TOfVJk0hcvko50bC-0" />
      </root>
    </mxGraphModel>
  </diagram>
</mxfile>
